<svg xmlns="http://www.w3.org/2000/svg" xmlns:xlink="http://www.w3.org/1999/xlink" viewBox="0,0,256,256" width="50px" height="50px"><g fill="#000000" fill-rule="nonzero" stroke="none" stroke-width="1" stroke-linecap="butt" stroke-linejoin="miter" stroke-miterlimit="10" stroke-dasharray="" stroke-dashoffset="0" font-family="none" font-weight="none" font-size="none" text-anchor="none" style="mix-blend-mode: normal"><g transform="scale(5.12,5.12)"><path d="M6,4c-1.09,0 -2,0.91 -2,2v38c0,1.09 0.91,2 2,2h38c1.09,0 2,-0.91 2,-2v-38c0,-1.09 -0.91,-2 -2,-2zM6,6h38v38h-38zM22.14258,17.48633l-3,5c-0.399,0.666 0.08042,1.51367 0.85742,1.51367h2l-1.82422,2.80859c-0.455,0.664 0.01922,1.56641 0.82422,1.56641h2.625l1,-2h-1.72656l2.10156,-4.375h-3.23437l2.0918,-3.48437zM25,22h2v7h-2l-1,2h3h2h2v-2h-2v-7h2v-2h-6zM13,19v11h2v-11zM33,19v1h-1v2h1v2h-2v2h2v5h2v-5h3v3h-1.94922c0.23,1.14 0.23922,2 1.44922,2c1.38,0 2.5,-1.12 2.5,-2.5v-2.5c0,-1.1 -0.9,-2 -2,-2v-2c0,-1.105 -0.895,-2 -2,-2h-1v-1zM40,20c-0.552,0 -1,0.448 -1,1v1h1c0.552,0 1,-0.448 1,-1c0,-0.552 -0.448,-1 -1,-1zM10,22v2c-0.002,2.12 -0.49858,4.06672 -0.89258,4.26172l0.2832,1.97852c2.421,-0.346 2.60938,-4.86423 2.60938,-6.24023v-2zM16,22v1.93164c0,1.052 0.09297,4.57539 1.29297,5.77539l1.41406,-1.41406c-0.369,-0.369 -0.70603,-2.44733 -0.70703,-4.36133v-1.93164zM35,22h1v2h-1zM20,29l-1,2h3l1,-2z"></path></g></g></svg>